<svg width="24" height="24" viewBox="0 0 24 24" fill="none" xmlns="http://www.w3.org/2000/svg">
<path d="M12 1.125C18.0054 1.125 22.875 5.99458 22.875 12C22.875 17.4289 18.8979 21.9273 13.6986 22.7421V15.1434H16.2343L16.716 12H13.7003V9.95964C13.7003 9.1 14.1215 8.26107 15.4731 8.26107H16.8437V5.58548C16.8437 5.58548 15.607 5.3745 14.4211 5.37316C14.4167 5.37316 14.4123 5.37315 14.408 5.37315C11.924 5.37315 10.2996 6.87839 10.2996 9.60405V12H7.53772V15.1434L7.53952 15.1434L10.2996 15.1434V22.7418C5.10122 21.9263 1.125 17.4282 1.125 12C1.125 5.99458 5.99458 1.125 12 1.125Z" fill="#1877F2"/>
</svg>