<svg width="24" height="24" viewBox="0 0 24 24" fill="none" xmlns="http://www.w3.org/2000/svg">
<path d="M21.5657 10.208H12.2054V14.0582H17.5615C17.339 15.3074 16.6374 16.3512 15.5765 17.0699L18.7936 19.5683C20.6759 17.8228 21.7539 15.2732 21.7539 12.2443C21.7539 11.5427 21.6855 10.8583 21.5657 10.208Z" fill="#3E82F1"/>
<path d="M15.5764 17.069C14.6866 17.668 13.5401 18.0102 12.2054 18.0102C9.62145 18.0102 7.41401 16.2648 6.64397 13.9033H6.62685V13.9204L3.30713 16.4872C4.94988 19.7385 8.30383 21.9802 12.2054 21.9802C14.8919 21.9802 17.1507 21.0904 18.7935 19.5674L15.5764 17.069Z" fill="#32A753"/>
<path d="M6.31887 12.0219C6.31887 11.3716 6.43865 10.7214 6.62688 10.1225L3.32427 7.55566H3.30716C2.62268 8.8904 2.24622 10.4134 2.24622 12.0219C2.24622 13.6304 2.62268 15.1534 3.30716 16.4881L6.62688 13.9213V13.9042C6.42154 13.3053 6.31887 12.6893 6.31887 12.0219Z" fill="#F9BB00"/>
<path d="M12.2054 2.0625C8.32094 2.0625 4.94988 4.28706 3.30713 7.53833L3.32424 7.55545L6.62685 10.1222C7.414 7.7779 9.60434 6.03248 12.2054 6.03248C13.6599 6.03248 14.9775 6.52873 16.0042 7.52122L18.8619 4.66352C17.1336 3.055 14.8748 2.0625 12.2054 2.0625Z" fill="#E74133"/>
</svg>