<svg width="24" height="24" viewBox="0 0 24 24" fill="none" xmlns="http://www.w3.org/2000/svg">
<path d="M9.8175 12.585V13.0388C9.8175 13.1081 9.76125 13.1644 9.69188 13.1644H7.8825C7.84875 13.1644 7.81875 13.1513 7.79438 13.1288H7.7925C7.77 13.1025 7.75688 13.0725 7.75688 13.0388V10.2244C7.75688 10.1569 7.81313 10.0988 7.8825 10.0988H8.33625C8.40375 10.0988 8.46188 10.1569 8.46188 10.2244V12.4613H9.69375C9.76313 12.4613 9.81938 12.5194 9.8175 12.585Z" fill="#00B900"/>
<path d="M10.9125 10.2244V13.0406C10.9125 13.11 10.8544 13.1663 10.7869 13.1663H10.3331C10.2638 13.1663 10.2075 13.11 10.2075 13.0406V10.2244C10.2075 10.1569 10.2638 10.0988 10.3331 10.0988H10.7869C10.8544 10.0988 10.9125 10.1569 10.9125 10.2244Z" fill="#00B900"/>
<path d="M14.0344 13.0463C14.0344 13.1138 13.9781 13.1719 13.9088 13.1719H13.455C13.455 13.1719 13.4325 13.1719 13.4231 13.1663H13.4213C13.4213 13.1663 13.4194 13.1663 13.4194 13.1644H13.4175C13.4175 13.1644 13.4156 13.1644 13.4138 13.1625H13.41L13.4081 13.1606H13.4063C13.4063 13.1606 13.4044 13.1606 13.4025 13.1606C13.4025 13.1588 13.4006 13.1588 13.4006 13.1588L13.3969 13.1569C13.3969 13.1569 13.3963 13.1563 13.395 13.155H13.3913C13.3913 13.155 13.3913 13.1531 13.3894 13.1531L13.3875 13.1494C13.3875 13.1475 13.3856 13.1475 13.3856 13.1475C13.3725 13.14 13.3613 13.1288 13.3538 13.1156L12.06 11.3719V13.0444C12.06 13.1138 12.0056 13.17 11.9344 13.17H11.4806C11.4131 13.17 11.3569 13.1138 11.3569 13.0444V10.2281C11.3569 10.1606 11.4131 10.1025 11.4806 10.1025H11.9588C11.9588 10.1025 11.9606 10.1025 11.9625 10.1025H11.9663C11.9663 10.1025 11.9681 10.1044 11.97 10.1044C11.9719 10.1044 11.9756 10.1044 11.9775 10.1063C11.9775 10.1063 11.9794 10.1081 11.9813 10.1081H11.9831C11.9831 10.1081 11.9869 10.11 11.9869 10.1119C11.9869 10.1119 11.9888 10.1119 11.9906 10.1119C11.9925 10.1119 11.9963 10.1119 11.9963 10.1138C11.9981 10.1138 11.9981 10.1156 11.9981 10.1156H12L12.0038 10.1194C12.0038 10.1194 12.0056 10.1194 12.0075 10.1213L12.015 10.1288H12.0188V10.1325H12.0206L12.0263 10.14C12.0263 10.1419 12.0281 10.1438 12.03 10.1456C12.0319 10.1456 12.0338 10.1513 12.0356 10.1531L13.3256 11.895V10.2225C13.3256 10.155 13.3819 10.0969 13.4513 10.0969H13.905C13.9744 10.0969 14.0306 10.155 14.0344 10.2225V13.0463Z" fill="#00B900"/>
<path d="M16.5338 10.2244V10.6781C16.5338 10.7475 16.4775 10.8038 16.4081 10.8038H15.1744V11.2819H16.4063C16.4756 11.2819 16.5319 11.3363 16.5319 11.4075V11.8594C16.5319 11.9269 16.4756 11.985 16.4063 11.985H15.1744V12.4594H16.4063C16.4756 12.4594 16.5319 12.5175 16.5319 12.585V13.0388C16.5319 13.1081 16.4756 13.1644 16.4063 13.1644H14.5969C14.5631 13.1644 14.5313 13.1513 14.5106 13.1288H14.5069C14.4844 13.1025 14.4713 13.0725 14.4713 13.0388V10.2244C14.4713 10.1925 14.4844 10.1606 14.5069 10.1381L14.5106 10.1344C14.5313 10.1138 14.5631 10.0988 14.5969 10.0988H16.4081C16.4775 10.0988 16.5338 10.155 16.5338 10.2244Z" fill="#00B900"/>
<path d="M12 1.125C5.99438 1.125 1.125 5.99438 1.125 12C1.125 18.0056 5.99438 22.875 12 22.875C18.0056 22.875 22.875 18.0056 22.875 12C22.875 5.99438 18.0056 1.125 12 1.125ZM17.175 14.7225C15.8213 16.2825 12.7894 18.1819 12.0994 18.4725C11.4281 18.7556 11.5069 18.315 11.5369 18.1388C11.5369 18.135 11.5369 18.1294 11.5406 18.1256C11.5575 18.0281 11.6325 17.5725 11.6325 17.5725C11.6531 17.4075 11.6775 17.1525 11.6119 16.9875C11.5406 16.8094 11.2538 16.7156 11.0419 16.6706C7.93688 16.26 5.63813 14.0888 5.63813 11.4975C5.63813 8.60625 8.53688 6.255 12.0994 6.255C15.6619 6.255 18.5588 8.60625 18.5588 11.4975C18.5588 12.6544 18.1106 13.695 17.175 14.7225Z" fill="#00B900"/>
</svg>